<svg width="45" height="57" viewBox="0 0 45 57" fill="none" xmlns="http://www.w3.org/2000/svg">
<path d="M43.269 13.8257C41.168 8.29653 36.966 3.97687 31.5716 1.78824C15.3883 -4.66246 0 7.25981 0 22.8106C0 34.6177 8.80144 44.2937 20.1013 45.5033C21.4074 45.6184 22.4862 46.8279 22.4862 48.1526V53.7394C22.4862 56.9648 26.6314 58.2319 28.3917 55.5249L41.168 35.5968L41.5655 34.9633C45.1428 29.1461 46.2785 21.6011 43.269 13.8257ZM18.0004 12.3282H27.0289C28.2782 12.3282 29.3003 13.3649 29.3003 14.632C29.3003 15.8991 28.2782 16.9359 27.0289 16.9359H18.0004C16.7511 16.9359 15.729 15.8991 15.729 14.632C15.729 13.3649 16.7511 12.3282 18.0004 12.3282ZM27.0289 33.3506H18.0004C16.7511 33.3506 15.729 32.3139 15.729 31.0468C15.729 29.7797 16.7511 28.743 18.0004 28.743H27.0289C28.2782 28.743 29.3003 29.7797 29.3003 31.0468C29.2435 32.3139 28.2782 33.3506 27.0289 33.3506ZM31.5148 25.1144H13.5145C12.2652 25.1144 11.2431 24.0777 11.2431 22.8106C11.2431 21.5435 12.2652 20.5068 13.5145 20.5068H31.5148C32.7641 20.5068 33.7862 21.5435 33.7862 22.8106C33.7862 24.0777 32.7641 25.1144 31.5148 25.1144Z" fill="#FFA726"/>
</svg>
