<svg width="19" height="24" viewBox="0 0 19 24" fill="none" xmlns="http://www.w3.org/2000/svg">
<path d="M18.2691 5.82135C17.382 3.49328 15.6079 1.67447 13.3302 0.752942C6.49729 -1.96314 0 3.05676 0 9.60447C0 14.5759 3.71616 18.65 8.48723 19.1593C9.03866 19.2078 9.49419 19.717 9.49419 20.2748V22.6271C9.49419 23.9852 11.2444 24.5187 11.9876 23.3789L17.382 14.9881L17.5499 14.7214C19.0603 12.2721 19.5398 9.0952 18.2691 5.82135ZM7.60015 5.19083H11.4122C11.9397 5.19083 12.3712 5.62734 12.3712 6.16086C12.3712 6.69438 11.9397 7.13089 11.4122 7.13089H7.60015C7.07269 7.13089 6.64114 6.69438 6.64114 6.16086C6.64114 5.62734 7.07269 5.19083 7.60015 5.19083ZM11.4122 14.0424H7.60015C7.07269 14.0424 6.64114 13.6058 6.64114 13.0723C6.64114 12.5388 7.07269 12.1023 7.60015 12.1023H11.4122C11.9397 12.1023 12.3712 12.5388 12.3712 13.0723C12.3472 13.6058 11.9397 14.0424 11.4122 14.0424ZM13.3063 10.5745H5.70611C5.17865 10.5745 4.7471 10.138 4.7471 9.60447C4.7471 9.07095 5.17865 8.63444 5.70611 8.63444H13.3063C13.8337 8.63444 14.2653 9.07095 14.2653 9.60447C14.2653 10.138 13.8337 10.5745 13.3063 10.5745Z" fill="#424242"/>
</svg>
