<svg width="14" height="10" viewBox="0 0 14 10" fill="none" xmlns="http://www.w3.org/2000/svg">
<path d="M6.46875 8.90625L0.40625 2.84375C0.260417 2.69792 0.1875 2.52083 0.1875 2.3125C0.1875 2.10417 0.260417 1.92708 0.40625 1.78125L1.09375 1.09375C1.23958 0.947917 1.41667 0.875 1.625 0.875C1.83333 0.854167 2.01042 0.916667 2.15625 1.0625L7 5.90625L11.8438 1.0625C11.9896 0.916667 12.1667 0.854167 12.375 0.875C12.5833 0.875 12.7604 0.947917 12.9062 1.09375L13.5938 1.78125C13.7396 1.92708 13.8125 2.10417 13.8125 2.3125C13.8125 2.52083 13.7396 2.69792 13.5938 2.84375L7.53125 8.90625C7.38542 9.07292 7.20833 9.15625 7 9.15625C6.79167 9.15625 6.61458 9.07292 6.46875 8.90625Z" fill="#212121"/>
</svg>
