<svg width="16" height="17" viewBox="0 0 16 17" fill="none" xmlns="http://www.w3.org/2000/svg">
<path d="M15.6992 8.03906C15.8867 8.25 15.8867 8.44922 15.6992 8.63672L8.31641 15.9844C8.12891 16.1953 7.94141 16.1953 7.75391 15.9844L0.371094 8.63672C0.183594 8.44922 0.183594 8.25 0.371094 8.03906L1.07422 7.33594C1.26172 7.14844 1.46094 7.14844 1.67188 7.33594L7.12109 12.7852V0.796875C7.12109 0.515625 7.26172 0.375 7.54297 0.375H8.52734C8.80859 0.375 8.94922 0.515625 8.94922 0.796875V12.7852L14.3984 7.33594C14.6094 7.14844 14.8086 7.14844 14.9961 7.33594L15.6992 8.03906Z" fill="#212121"/>
</svg>
