<svg width="295" height="57" viewBox="0 0 295 57" fill="none" xmlns="http://www.w3.org/2000/svg">
<path d="M43.9281 14.212C41.8242 8.75817 37.6165 4.49737 32.2147 2.33857C16.0094 -4.02421 0.600098 7.73558 0.600098 23.0744C0.600098 34.7206 9.41353 44.2648 20.7288 45.4578C22.0366 45.5714 23.117 46.7644 23.117 48.0711V53.5817C23.117 56.7631 27.2678 58.0129 29.0305 55.3428L41.8242 35.6864L42.2222 35.0615C45.8045 29.3236 46.9417 21.8814 43.9281 14.212ZM18.625 12.7349H27.6659C28.9168 12.7349 29.9403 13.7575 29.9403 15.0073C29.9403 16.2572 28.9168 17.2798 27.6659 17.2798H18.625C17.374 17.2798 16.3506 16.2572 16.3506 15.0073C16.3506 13.7575 17.374 12.7349 18.625 12.7349ZM27.6659 33.4708H18.625C17.374 33.4708 16.3506 32.4482 16.3506 31.1983C16.3506 29.9485 17.374 28.9259 18.625 28.9259H27.6659C28.9168 28.9259 29.9403 29.9485 29.9403 31.1983C29.8834 32.4482 28.9168 33.4708 27.6659 33.4708ZM32.1579 25.3469H14.133C12.882 25.3469 11.8585 24.3243 11.8585 23.0744C11.8585 21.8246 12.882 20.802 14.133 20.802H32.1579C33.4088 20.802 34.4323 21.8246 34.4323 23.0744C34.4323 24.3243 33.4088 25.3469 32.1579 25.3469Z" fill="#29B6F6"/>
<path d="M66.7293 0.975098V21.4837C68.5488 19.5522 71.2781 17.8478 75.1447 17.8478C78.6132 17.8478 82.366 18.984 85.1522 21.6541C87.7678 24.097 89.7579 28.0169 89.7579 32.8458C89.7579 37.3339 88.0521 41.3106 85.209 44.0943C82.5366 46.7076 79.3524 48.0143 75.2584 48.0143C73.3251 48.0143 69.5723 47.6166 66.7293 43.9807V47.0485H56.608V11.0874C56.608 5.46313 61.1569 0.975098 66.7293 0.975098ZM77.4191 37.4475C78.7269 36.1408 79.3524 34.4933 79.3524 33.0163C79.3524 31.1415 78.5563 29.3804 77.4191 28.2442C76.5093 27.3352 75.0878 26.4262 72.9271 26.4262C71.0507 26.4262 69.4586 27.108 68.3214 28.301C67.2979 29.3804 66.445 31.2551 66.445 32.8458C66.445 34.5501 67.241 36.4249 68.6057 37.6179C69.686 38.5837 71.335 39.3222 72.984 39.3222C74.4055 39.379 76.0544 38.8678 77.4191 37.4475Z" fill="white"/>
<path d="M94.4205 18.7567H104.542V23.3584C105.565 21.4836 106.987 20.177 108.522 19.4385C110.057 18.6431 111.877 18.3022 113.753 18.3022C113.981 18.3022 114.436 18.3591 115.8 18.4159V27.96C115.288 27.7328 113.924 26.9375 111.422 26.9375C110.114 26.9375 108.238 27.1079 106.816 28.4713C104.655 30.4029 104.542 33.4139 104.542 34.8909V46.9348H94.4205V18.7567Z" fill="white"/>
<path d="M125.922 12.678C129.062 12.678 131.608 10.1345 131.608 6.99697C131.608 3.85941 129.062 1.31592 125.922 1.31592C122.781 1.31592 120.235 3.85941 120.235 6.99697C120.235 10.1345 122.781 12.678 125.922 12.678Z" fill="#FFA726"/>
<path d="M130.982 18.7568H120.861V46.9917H130.982V18.7568Z" fill="white"/>
<path d="M149.064 27.051V46.9916H138.943V27.051H135.702V18.7567H138.943V9.49658H149.064V18.7567H154.807V27.051H149.064Z" fill="white"/>
<path d="M189.094 34.7207H168.055C168.055 36.2546 168.624 38.243 169.818 39.436C170.443 40.0609 171.694 40.7994 173.969 40.7994C174.196 40.7994 176.016 40.7426 177.267 40.0609C177.892 39.6632 178.575 39.0383 179.029 38.1862H188.696C188.241 39.7769 187.388 41.9925 185.284 43.9808C183.18 46.026 179.939 47.9008 173.798 47.9008C170.045 47.9008 165.553 47.1054 162.085 43.5832C160.265 41.7652 157.934 38.2998 157.934 32.9028C157.934 28.1875 159.697 24.3812 162.142 21.9951C164.473 19.7227 168.169 17.9048 173.685 17.9048C176.982 17.9048 181.19 18.5865 184.545 21.7679C188.525 25.5742 189.037 30.4599 189.037 33.6413V34.7207H189.094ZM179.826 28.926C179.598 27.8466 178.916 26.6536 178.177 25.9151C176.869 24.6084 174.992 24.3812 174.026 24.3812C172.32 24.3812 171.012 24.8357 169.932 25.9151C169.249 26.6536 168.624 27.6762 168.396 28.926H179.826Z" fill="white"/>
<path d="M199.897 18.7568L206.664 33.2435L213.601 18.7568H224.859L210.132 46.9917H203.252L188.582 18.7568H199.897Z" fill="#29B6F6"/>
<path d="M238.392 18.7568V34.5502C238.392 35.6864 238.563 37.4475 239.927 38.6405C240.951 39.5495 242.259 39.7199 243.453 39.7199C244.704 39.7199 245.898 39.6063 247.035 38.5269C248.286 37.2771 248.513 35.8 248.513 34.5502V18.7568H258.635V36.3681C258.635 38.7542 258.464 41.3674 255.905 43.9239C252.437 47.503 247.547 47.9007 243.68 47.9007C239.473 47.9007 234.241 47.4462 230.887 43.8671C228.726 41.5947 228.214 39.095 228.214 36.3681V18.7568H238.392Z" fill="#29B6F6"/>
<path d="M294.4 34.7207H273.362C273.362 36.2546 273.93 38.243 275.124 39.436C275.75 40.0609 277.001 40.7994 279.275 40.7994C279.503 40.7994 281.322 40.7426 282.573 40.0609C283.199 39.6632 283.881 39.0383 284.336 38.1862H294.002C293.547 39.7769 292.694 41.9925 290.591 43.9808C288.487 46.026 285.246 47.9008 279.105 47.9008C275.352 47.9008 270.86 47.1054 267.391 43.5832C265.572 41.7652 263.24 38.2998 263.24 32.9028C263.24 28.1875 265.003 24.3812 267.448 21.9951C269.779 19.7227 273.475 17.9048 278.991 17.9048C282.289 17.9048 286.497 18.5865 289.851 21.7679C293.832 25.5742 294.343 30.4599 294.343 33.6413V34.7207H294.4ZM285.132 28.926C284.904 27.8466 284.222 26.6536 283.483 25.9151C282.175 24.6084 280.299 24.3812 279.332 24.3812C277.626 24.3812 276.318 24.8357 275.238 25.9151C274.556 26.6536 273.93 27.6762 273.703 28.926H285.132Z" fill="#29B6F6"/>
</svg>
