<svg width="183" height="36" viewBox="0 0 183 36" fill="none" xmlns="http://www.w3.org/2000/svg">
<path d="M27.4683 9.14904C26.1676 5.77057 23.5663 3.13114 20.2267 1.79383C10.2081 -2.14772 0.681519 5.13711 0.681519 14.6391C0.681519 21.8535 6.13028 27.7658 13.1258 28.5049C13.9343 28.5752 14.6022 29.3143 14.6022 30.1237V33.5374C14.6022 35.5081 17.1684 36.2824 18.2582 34.6283L26.1677 22.4518L26.4137 22.0646C28.6284 18.5102 29.3314 13.9 27.4683 9.14904ZM11.8251 8.23404H17.4145C18.1879 8.23404 18.8206 8.8675 18.8206 9.64173C18.8206 10.416 18.1879 11.0494 17.4145 11.0494H11.8251C11.0517 11.0494 10.419 10.416 10.419 9.64173C10.419 8.8675 11.0517 8.23404 11.8251 8.23404ZM17.4145 21.0793H11.8251C11.0517 21.0793 10.419 20.4458 10.419 19.6716C10.419 18.8973 11.0517 18.2639 11.8251 18.2639H17.4145C18.1879 18.2639 18.8206 18.8973 18.8206 19.6716C18.7855 20.4458 18.1879 21.0793 17.4145 21.0793ZM20.1916 16.0467H9.048C8.27463 16.0467 7.64187 15.4133 7.64187 14.6391C7.64187 13.8648 8.27463 13.2314 9.048 13.2314H20.1916C20.965 13.2314 21.5977 13.8648 21.5977 14.6391C21.5977 15.4133 20.965 16.0467 20.1916 16.0467Z" fill="#29B6F6"/>
<path d="M41.5648 0.949219V13.6537C42.6897 12.4571 44.377 11.4014 46.7675 11.4014C48.9118 11.4014 51.2319 12.1052 52.9544 13.7592C54.5715 15.2725 55.8019 17.7008 55.8019 20.6922C55.8019 23.4723 54.7473 25.9358 52.9896 27.6602C51.3374 29.2791 49.3688 30.0885 46.8378 30.0885C45.6426 30.0885 43.3224 29.8422 41.5648 27.5899V29.4902H35.3075V7.21346C35.3075 3.72942 38.1198 0.949219 41.5648 0.949219ZM48.1736 23.5427C48.9821 22.7333 49.3688 21.7127 49.3688 20.7977C49.3688 19.6364 48.8767 18.5454 48.1736 17.8416C47.6111 17.2785 46.7323 16.7154 45.3965 16.7154C44.2364 16.7154 43.2521 17.1377 42.5491 17.8768C41.9163 18.5454 41.389 19.7068 41.389 20.6922C41.389 21.7479 41.8812 22.9093 42.7248 23.6483C43.3927 24.2466 44.4122 24.7041 45.4316 24.7041C46.3105 24.7393 47.3299 24.4225 48.1736 23.5427Z" fill="#212121"/>
<path d="M58.6844 11.9642H64.9417V14.8147C65.5745 13.6534 66.4533 12.844 67.4025 12.3865C68.3516 11.8938 69.4765 11.6826 70.6366 11.6826C70.7772 11.6826 71.0584 11.7178 71.9021 11.753V17.6653C71.5857 17.5246 70.742 17.0319 69.1953 17.0319C68.3868 17.0319 67.2267 17.1374 66.3479 17.9821C65.012 19.1786 64.9417 21.0438 64.9417 21.9588V29.4196H58.6844V11.9642Z" fill="#212121"/>
<path d="M78.1595 8.19863C80.101 8.19863 81.6748 6.62302 81.6748 4.67939C81.6748 2.73577 80.101 1.16016 78.1595 1.16016C76.218 1.16016 74.6442 2.73577 74.6442 4.67939C74.6442 6.62302 76.218 8.19863 78.1595 8.19863Z" fill="#FFA726"/>
<path d="M81.288 11.9648H75.0308V29.4555H81.288V11.9648Z" fill="#212121"/>
<path d="M92.4668 17.102V29.4545H86.2095V17.102H84.2058V11.9639H86.2095V6.22754H92.4668V11.9639H96.0173V17.102H92.4668Z" fill="#212121"/>
<path d="M117.215 21.8535H104.208C104.208 22.8037 104.559 24.0354 105.298 24.7744C105.684 25.1616 106.458 25.6191 107.864 25.6191C108.005 25.6191 109.129 25.5839 109.903 25.1616C110.289 24.9152 110.711 24.5281 110.993 24.0002H116.969C116.687 24.9856 116.16 26.3581 114.859 27.5898C113.559 28.8568 111.555 30.0181 107.758 30.0181C105.438 30.0181 102.661 29.5254 100.517 27.3435C99.392 26.2173 97.9507 24.0706 97.9507 20.7273C97.9507 17.8063 99.0404 15.4485 100.552 13.9704C101.993 12.5627 104.278 11.4365 107.688 11.4365C109.727 11.4365 112.328 11.8588 114.402 13.8296C116.863 16.1875 117.18 19.214 117.18 21.1848V21.8535H117.215ZM111.485 18.2638C111.344 17.5952 110.922 16.8562 110.465 16.3987C109.657 15.5892 108.497 15.4485 107.899 15.4485C106.844 15.4485 106.036 15.73 105.368 16.3987C104.946 16.8562 104.559 17.4896 104.419 18.2638H111.485Z" fill="#212121"/>
<path d="M123.894 11.9648L128.077 20.9389L132.366 11.9648H139.326L130.221 29.4555H125.968L116.898 11.9648H123.894Z" fill="#29B6F6"/>
<path d="M147.693 11.9648V21.7483C147.693 22.4522 147.798 23.5431 148.642 24.2822C149.274 24.8453 150.083 24.9508 150.821 24.9508C151.595 24.9508 152.333 24.8805 153.036 24.2118C153.809 23.4376 153.95 22.5226 153.95 21.7483V11.9648H160.207V22.8745C160.207 24.3526 160.102 25.9714 158.52 27.5551C156.375 29.7722 153.352 30.0185 150.962 30.0185C148.361 30.0185 145.126 29.737 143.052 27.5199C141.717 26.1122 141.4 24.5637 141.4 22.8745V11.9648H147.693Z" fill="#29B6F6"/>
<path d="M182.319 21.8535H169.312C169.312 22.8037 169.663 24.0354 170.402 24.7744C170.788 25.1616 171.562 25.6191 172.968 25.6191C173.108 25.6191 174.233 25.5839 175.007 25.1616C175.393 24.9152 175.815 24.5281 176.096 24.0002H182.072C181.791 24.9856 181.264 26.3581 179.963 27.5898C178.663 28.8568 176.659 30.0181 172.862 30.0181C170.542 30.0181 167.765 29.5254 165.621 27.3435C164.496 26.2173 163.055 24.0706 163.055 20.7273C163.055 17.8063 164.144 15.4485 165.656 13.9704C167.097 12.5627 169.382 11.4365 172.792 11.4365C174.831 11.4365 177.432 11.8588 179.506 13.8296C181.967 16.1875 182.283 19.214 182.283 21.1848V21.8535H182.319ZM176.589 18.2638C176.448 17.5952 176.026 16.8562 175.569 16.3987C174.761 15.5892 173.601 15.4485 173.003 15.4485C171.948 15.4485 171.14 15.73 170.472 16.3987C170.05 16.8562 169.663 17.4896 169.523 18.2638H176.589Z" fill="#29B6F6"/>
</svg>
