<svg width="176" height="35" viewBox="0 0 176 35" fill="none" xmlns="http://www.w3.org/2000/svg">
<path d="M26.6241 9.0282C25.3773 5.79452 22.8839 3.26821 19.6828 1.98821C10.0797 -1.78441 0.948242 5.18821 0.948242 14.2829C0.948242 21.1882 6.17102 26.8471 12.8764 27.5545C13.6514 27.6218 14.2916 28.3292 14.2916 29.1039V32.3713C14.2916 34.2576 16.7513 34.9987 17.7959 33.4155L25.3773 21.7608L25.6132 21.3903C27.736 17.9882 28.4099 13.5756 26.6241 9.0282ZM11.6297 8.15241H16.9872C17.7285 8.15241 18.335 8.75873 18.335 9.49978C18.335 10.2408 17.7285 10.8471 16.9872 10.8471H11.6297C10.8884 10.8471 10.2818 10.2408 10.2818 9.49978C10.2818 8.75873 10.8884 8.15241 11.6297 8.15241ZM16.9872 20.4471H11.6297C10.8884 20.4471 10.2818 19.8408 10.2818 19.0998C10.2818 18.3587 10.8884 17.7524 11.6297 17.7524H16.9872C17.7285 17.7524 18.335 18.3587 18.335 19.0998C18.3013 19.8408 17.7285 20.4471 16.9872 20.4471ZM19.6491 15.6303H8.96773C8.22643 15.6303 7.61991 15.024 7.61991 14.2829C7.61991 13.5419 8.22643 12.9356 8.96773 12.9356H19.6491C20.3904 12.9356 20.997 13.5419 20.997 14.2829C20.997 15.024 20.3904 15.6303 19.6491 15.6303Z" fill="#BDBDBD"/>
<path d="M40.1359 1.17969V13.3397C41.2142 12.1944 42.8316 11.1839 45.1229 11.1839C47.1783 11.1839 49.4022 11.8576 51.0532 13.4407C52.6032 14.8891 53.7826 17.2133 53.7826 20.0765C53.7826 22.7375 52.7717 25.0954 51.0869 26.746C49.5032 28.2954 47.6163 29.0702 45.1902 29.0702C44.0446 29.0702 41.8207 28.8344 40.1359 26.6786V28.4975H34.1382V7.17547C34.1382 3.84074 36.8338 1.17969 40.1359 1.17969ZM46.4707 22.8049C47.2457 22.0302 47.6163 21.0533 47.6163 20.1775C47.6163 19.066 47.1446 18.0218 46.4707 17.3481C45.9315 16.8091 45.0892 16.2702 43.8087 16.2702C42.6968 16.2702 41.7533 16.6744 41.0794 17.3818C40.4729 18.0218 39.9675 19.1333 39.9675 20.0765C39.9675 21.087 40.4392 22.1986 41.2479 22.906C41.8881 23.4786 42.8653 23.9165 43.8424 23.9165C44.6848 23.9502 45.662 23.647 46.4707 22.8049Z" fill="#757575"/>
<path d="M56.5457 11.7231H62.5434V14.4515C63.1499 13.3399 63.9923 12.5652 64.9021 12.1273C65.8119 11.6557 66.8901 11.4536 68.0021 11.4536C68.1368 11.4536 68.4064 11.4873 69.2151 11.521V17.1799C68.9118 17.0452 68.1031 16.5736 66.6206 16.5736C65.8456 16.5736 64.7336 16.6747 63.8912 17.4831C62.6108 18.6283 62.5434 20.4136 62.5434 21.2894V28.4304H56.5457V11.7231Z" fill="#757575"/>
<path d="M75.2128 8.11866C77.0737 8.11866 78.5823 6.61057 78.5823 4.75025C78.5823 2.88993 77.0737 1.38184 75.2128 1.38184C73.3519 1.38184 71.8433 2.88993 71.8433 4.75025C71.8433 6.61057 73.3519 8.11866 75.2128 8.11866Z" fill="#BDBDBD"/>
<path d="M78.2116 11.7227H72.2139V28.4637H78.2116V11.7227Z" fill="#757575"/>
<path d="M88.9269 16.6408V28.464H82.9292V16.6408H81.0085V11.7229H82.9292V6.23242H88.9269V11.7229H92.3302V16.6408H88.9269Z" fill="#757575"/>
<path d="M112.648 21.1883H100.181C100.181 22.0977 100.518 23.2767 101.226 23.9841C101.596 24.3546 102.338 24.7925 103.685 24.7925C103.82 24.7925 104.898 24.7588 105.64 24.3546C106.01 24.1188 106.415 23.7483 106.684 23.243H112.412C112.143 24.1862 111.637 25.4998 110.391 26.6788C109.144 27.8914 107.223 29.003 103.584 29.003C101.36 29.003 98.6985 28.5314 96.6431 26.443C95.5649 25.3651 94.1833 23.3104 94.1833 20.1104C94.1833 17.3146 95.2279 15.0578 96.6768 13.643C98.0583 12.2957 100.248 11.2178 103.517 11.2178C105.471 11.2178 107.965 11.622 109.953 13.5083C112.311 15.7651 112.615 18.662 112.615 20.5483V21.1883H112.648ZM107.156 17.7525C107.021 17.1125 106.617 16.4051 106.179 15.9672C105.404 15.1925 104.292 15.0578 103.719 15.0578C102.708 15.0578 101.933 15.3272 101.293 15.9672C100.889 16.4051 100.518 17.0114 100.383 17.7525H107.156Z" fill="#757575"/>
<path d="M119.05 11.7227L123.06 20.3121L127.171 11.7227H133.843L125.115 28.4637H121.038L112.345 11.7227H119.05Z" fill="#BDBDBD"/>
<path d="M141.862 11.7227V21.0868C141.862 21.7605 141.963 22.8047 142.772 23.5121C143.379 24.0511 144.154 24.1521 144.861 24.1521C145.602 24.1521 146.31 24.0847 146.984 23.4447C147.725 22.7037 147.86 21.8279 147.86 21.0868V11.7227H153.858V22.1647C153.858 23.5795 153.757 25.1289 152.24 26.6447C150.185 28.7668 147.287 29.0026 144.996 29.0026C142.502 29.0026 139.403 28.7332 137.414 26.611C136.134 25.2637 135.831 23.7816 135.831 22.1647V11.7227H141.862Z" fill="#BDBDBD"/>
<path d="M175.052 21.1883H162.585C162.585 22.0977 162.922 23.2767 163.629 23.9841C164 24.3546 164.741 24.7925 166.089 24.7925C166.224 24.7925 167.302 24.7588 168.043 24.3546C168.414 24.1188 168.818 23.7483 169.088 23.243H174.816C174.547 24.1862 174.041 25.4998 172.794 26.6788C171.548 27.8914 169.627 29.003 165.988 29.003C163.764 29.003 161.102 28.5314 159.047 26.443C157.968 25.3651 156.587 23.3104 156.587 20.1104C156.587 17.3146 157.631 15.0578 159.08 13.643C160.462 12.2957 162.652 11.2178 165.921 11.2178C167.875 11.2178 170.368 11.622 172.356 13.5083C174.715 15.7651 175.018 18.662 175.018 20.5483V21.1883H175.052ZM169.56 17.7525C169.425 17.1125 169.02 16.4051 168.582 15.9672C167.807 15.1925 166.696 15.0578 166.123 15.0578C165.112 15.0578 164.337 15.3272 163.697 15.9672C163.292 16.4051 162.922 17.0114 162.787 17.7525H169.56Z" fill="#BDBDBD"/>
</svg>
