<svg width="48" height="32" viewBox="0 0 48 32" fill="none" xmlns="http://www.w3.org/2000/svg">
<path d="M40.6 0H40.9C44.8 0 48 3.1 48 7V23.8C48 27.8 44.8 31 40.7 31C36.6 31 33.4 27.8 33.4 23.8V7C33.4 3.1 36.6 0 40.6 0Z" fill="white"/>
<path d="M7.3 0C11.3 0 14.6 3.2 14.6 7.2V23.9C14.6 27.9 11.4 31.1 7.3 31.1C3.2 31.1 0 27.8 0 23.8V7.2C0 3.2 3.2 0 7.3 0Z" fill="white"/>
<path d="M24 0C28 0 31.2999 3.2 31.2999 7.2V23.9C31.2999 27.9 28.1 31.1 24 31.1C19.9 31.1 16.7 27.9 16.7 23.9V7.2C16.7 3.2 20 0 24 0Z" fill="white"/>
<path d="M40.7 28.7998C43.4614 28.7998 45.7 26.5612 45.7 23.7998C45.7 21.0384 43.4614 18.7998 40.7 18.7998C37.9385 18.7998 35.7 21.0384 35.7 23.7998C35.7 26.5612 37.9385 28.7998 40.7 28.7998Z" fill="#4772F6"/>
</svg>
