<svg width="47" height="64" viewBox="0 0 47 64" fill="none" xmlns="http://www.w3.org/2000/svg">
<g clip-path="url(#clip0)">
<path d="M6.92143 7.06977C11.5267 2.35163 17.0501 0 23.4917 0C29.9332 0 35.4712 2.35163 40.0765 7.06977C44.6817 11.773 46.999 17.4288 46.999 24.0074C46.999 25.2577 46.9115 26.4037 46.7512 27.4456C46.5909 28.4874 46.4306 29.44 46.2557 30.3181C46.0954 31.1963 45.6582 32.2977 44.9732 33.6372C44.2737 34.9767 43.6907 36.093 43.1952 37.0158C42.6997 37.9386 41.767 39.427 40.3825 41.5107C38.998 43.5944 37.7884 45.3805 36.7683 46.8837C35.7481 48.387 34.1013 50.7833 31.8132 54.0726C29.5252 57.3619 27.5286 60.2642 25.8089 62.7647C25.2405 63.5981 24.4681 64.0149 23.4771 64.0149C22.4861 64.0149 21.7283 63.5981 21.1453 62.7647C19.4256 60.2642 17.429 57.3619 15.141 54.0726C12.8529 50.7833 11.2061 48.387 10.1859 46.8837C9.16577 45.3805 7.95616 43.5944 6.57166 41.5107C5.18717 39.427 4.23988 37.9237 3.75895 37.0158C3.26344 36.093 2.6805 34.9767 1.98096 33.6372C1.32515 32.2977 0.902515 31.1814 0.727631 30.3181C0.567321 29.44 0.407011 28.4874 0.232127 27.4456C0.0718169 26.4037 -0.015625 25.2577 -0.015625 24.0074C-0.00105136 17.414 2.30158 11.773 6.92143 7.06977ZM23.4917 55.7544C24.6284 54.0874 26.2315 51.7507 28.2718 48.7591C34.2324 40.1712 37.8613 34.6344 39.1583 32.134C40.4554 29.6335 41.1112 26.9247 41.1112 24.0074C41.1112 19.0065 39.3915 14.7647 35.9667 11.2521C32.5419 7.73953 28.3738 5.99814 23.4771 5.99814C18.5803 5.99814 14.4269 7.75442 10.9875 11.2521C7.5481 14.7498 5.84298 19.0065 5.84298 24.0074C5.84298 26.9247 6.49879 29.6335 7.79585 32.134C9.0929 34.6344 12.7363 40.1712 18.6824 48.7591C20.8393 51.84 22.4424 54.1619 23.4917 55.7544ZM23.4917 33.5628C21.1307 33.5628 19.2507 34.3963 17.8662 36.0633C17.2979 36.6437 16.6275 36.9563 15.8405 37.0009C15.0681 37.0456 14.3686 36.7926 13.7565 36.2567C13.1444 35.7209 12.7946 35.0214 12.7217 34.1879C12.6343 33.3544 12.8821 32.64 13.4504 32.0595C16.1465 28.9786 19.4839 27.4307 23.4917 27.4307C27.4848 27.4307 30.8368 28.9786 33.5329 32.0595C34.1013 32.64 34.349 33.3544 34.2616 34.1879C34.1741 35.0214 33.839 35.706 33.2269 36.2567C32.6148 36.7926 31.9152 37.0456 31.1428 37.0009C30.3704 36.9563 29.7 36.6437 29.1171 36.0633C27.7472 34.3963 25.8672 33.5628 23.4917 33.5628ZM18.7261 21.12C18.1577 21.7005 17.4582 21.9981 16.642 21.9981C15.8259 21.9981 15.1264 21.7005 14.558 21.12C13.9896 20.5395 13.6982 19.8251 13.6982 18.9916C13.6982 18.1581 13.9896 17.4437 14.558 16.8633C15.1264 16.2828 15.8259 15.9851 16.642 15.9851C17.4582 15.9851 18.1577 16.2828 18.7261 16.8633C19.2945 17.4437 19.5859 18.1581 19.5859 18.9916C19.5859 19.84 19.2945 20.5395 18.7261 21.12ZM32.4399 21.12C31.8715 21.7005 31.172 21.9981 30.3559 21.9981C29.5397 21.9981 28.8402 21.7005 28.2718 21.12C27.7034 20.5395 27.412 19.8251 27.412 18.9916C27.412 18.1581 27.7034 17.4437 28.2718 16.8633C28.8402 16.2828 29.5397 15.9851 30.3559 15.9851C31.172 15.9851 31.8715 16.2828 32.4399 16.8633C33.0083 17.4437 33.2997 18.1581 33.2997 18.9916C33.2852 19.84 33.0083 20.5395 32.4399 21.12Z" fill="#F21313"/>
</g>
<defs>
<clipPath id="clip0">
<rect width="47" height="64" fill="white"/>
</clipPath>
</defs>
</svg>
