<svg width="21" height="21" viewBox="0 0 21 21" fill="none" xmlns="http://www.w3.org/2000/svg">
<path d="M19.2969 2.6875C19.7917 3.18229 20.0391 3.78125 20.0391 4.48438C20.0391 5.16146 19.7917 5.7474 19.2969 6.24219L5.54688 19.9922L1.09375 20.5C1.04167 20.5 1.0026 20.5 0.976562 20.5C0.690104 20.5 0.455729 20.3958 0.273438 20.1875C0.0911458 19.9792 0.0130208 19.7318 0.0390625 19.4453L0.546875 14.9922L14.2969 1.24219C14.7917 0.747396 15.3776 0.5 16.0547 0.5C16.7578 0.5 17.3568 0.747396 17.8516 1.24219L19.2969 2.6875ZM4.96094 18.8203L15.2734 8.50781L12.0312 5.26562L1.71875 15.5781L1.32812 19.2109L4.96094 18.8203ZM18.4375 5.34375C18.6719 5.10938 18.7891 4.82292 18.7891 4.48438C18.7891 4.11979 18.6719 3.82031 18.4375 3.58594L16.9531 2.10156C16.7188 1.86719 16.4193 1.75 16.0547 1.75C15.7161 1.75 15.4297 1.86719 15.1953 2.10156L12.9297 4.36719L16.1719 7.60938L18.4375 5.34375Z" fill="#FF9800"/>
</svg>
