<svg width="21" height="25" viewBox="0 0 21 25" fill="none" xmlns="http://www.w3.org/2000/svg">
<path d="M14.7188 14.4248C16.4375 14.4248 17.9062 15.0498 19.125 16.2998C20.375 17.5186 21 18.9873 21 20.7061V21.9248C21 22.5498 20.7812 23.0811 20.3438 23.5186C19.9062 23.9561 19.375 24.1748 18.75 24.1748H2.25C1.625 24.1748 1.09375 23.9561 0.65625 23.5186C0.21875 23.0811 0 22.5498 0 21.9248V20.7061C0 18.9873 0.609375 17.5186 1.82812 16.2998C3.07812 15.0498 4.5625 14.4248 6.28125 14.4248C6.6875 14.4248 7.28125 14.5498 8.0625 14.7998C8.875 15.0498 9.6875 15.1748 10.5 15.1748C11.3125 15.1748 12.125 15.0498 12.9375 14.7998C13.75 14.5498 14.3438 14.4248 14.7188 14.4248ZM18.75 21.9248V20.7061C18.75 19.6123 18.3438 18.6748 17.5312 17.8936C16.75 17.0811 15.8125 16.6748 14.7188 16.6748C14.625 16.6748 14.125 16.7998 13.2188 17.0498C12.3438 17.2998 11.4375 17.4248 10.5 17.4248C9.5625 17.4248 8.64062 17.2998 7.73438 17.0498C6.85938 16.7998 6.375 16.6748 6.28125 16.6748C5.1875 16.6748 4.23438 17.0811 3.42188 17.8936C2.64062 18.6748 2.25 19.6123 2.25 20.7061V21.9248H18.75ZM15.2812 11.7061C13.9688 13.0186 12.375 13.6748 10.5 13.6748C8.625 13.6748 7.03125 13.0186 5.71875 11.7061C4.40625 10.3936 3.75 8.7998 3.75 6.9248C3.75 5.0498 4.40625 3.45605 5.71875 2.14355C7.03125 0.831055 8.625 0.174805 10.5 0.174805C12.375 0.174805 13.9688 0.831055 15.2812 2.14355C16.5938 3.45605 17.25 5.0498 17.25 6.9248C17.25 8.7998 16.5938 10.3936 15.2812 11.7061ZM13.6875 3.7373C12.8125 2.8623 11.75 2.4248 10.5 2.4248C9.25 2.4248 8.1875 2.8623 7.3125 3.7373C6.4375 4.6123 6 5.6748 6 6.9248C6 8.1748 6.4375 9.2373 7.3125 10.1123C8.1875 10.9873 9.25 11.4248 10.5 11.4248C11.75 11.4248 12.8125 10.9873 13.6875 10.1123C14.5625 9.2373 15 8.1748 15 6.9248C15 5.6748 14.5625 4.6123 13.6875 3.7373Z" fill="#212121"/>
</svg>
