<svg width="47" height="47" viewBox="0 0 47 47" fill="none" xmlns="http://www.w3.org/2000/svg">
<path d="M47 23.5C47 24.6032 46.8172 25.6411 46.4517 26.6203C46.0861 27.5994 45.5508 28.5003 44.8458 29.3293C44.1408 30.1583 43.3314 30.8438 42.411 31.3921C42.8418 32.9196 42.8549 34.4667 42.4567 36.0268C42.0585 37.5869 41.2751 38.9513 40.1132 40.1132C38.9513 41.2751 37.5739 42.0585 35.9811 42.4567C34.3883 42.8549 32.8608 42.8353 31.3921 42.411C30.5369 43.821 29.4011 44.9372 27.9976 45.7597C26.5876 46.5887 25.0928 47 23.5 47C21.9072 47 20.4058 46.5887 19.0024 45.7597C17.5924 44.9307 16.4631 43.8144 15.6079 42.411C14.1979 42.8353 12.6835 42.8549 11.0646 42.4567C9.43917 42.0585 8.04875 41.2751 6.88681 40.1132C5.72486 38.9513 4.94153 37.5869 4.54333 36.0268C4.14514 34.4667 4.15819 32.9196 4.58903 31.3921C3.17903 30.5369 2.06278 29.4011 1.24028 27.9976C0.41125 26.5942 0 25.0928 0 23.5C0 21.9072 0.41125 20.4124 1.24028 19.0024C2.06931 17.5924 3.18556 16.4631 4.58903 15.6079C4.15819 14.0804 4.14514 12.5333 4.54333 10.9732C4.94153 9.41306 5.71833 8.04875 6.88681 6.88681C8.04875 5.72486 9.41306 4.94153 10.9732 4.54333C12.5333 4.14514 14.0804 4.16472 15.6079 4.58903C16.4631 3.17903 17.5989 2.06278 19.0024 1.24028C20.4058 0.41125 21.9072 0 23.5 0C25.0928 0 26.5876 0.41125 27.9976 1.24028C29.4076 2.06931 30.5369 3.18556 31.3921 4.58903C32.9196 4.16472 34.4667 4.14514 36.0268 4.54333C37.5869 4.94153 38.9513 5.72486 40.1132 6.88681C41.2751 8.04875 42.0585 9.41306 42.4567 10.9732C42.8549 12.5333 42.8353 14.0804 42.411 15.6079C43.821 16.4631 44.9372 17.5989 45.7597 19.0024C46.5887 20.4124 47 21.9072 47 23.5ZM38.6444 29.7406C39.1928 29.5578 39.5453 29.4338 39.7019 29.375C39.8521 29.3162 40.1001 29.2053 40.4396 29.0551C40.7725 28.905 41.0532 28.7483 41.2686 28.5982C41.484 28.4481 41.7451 28.2457 42.0519 28.0042C42.3587 27.7626 42.6199 27.4819 42.8353 27.1751C43.0507 26.8683 43.2661 26.5354 43.475 26.1633C43.6904 25.7978 43.8406 25.38 43.9319 24.9231C44.0233 24.4661 44.0625 23.9896 44.0625 23.5C44.0625 23.0104 44.0168 22.5339 43.9254 22.0769C43.834 21.62 43.6969 21.2022 43.5142 20.8367C43.3314 20.4711 43.129 20.1513 42.9201 19.8706C42.7047 19.5964 42.4436 19.3353 42.1368 19.0872C41.83 18.8457 41.5689 18.6433 41.3535 18.4932C41.1381 18.3431 40.8639 18.1733 40.5244 17.9906C40.185 17.8078 39.9435 17.6838 39.7868 17.625C39.6301 17.5662 39.2515 17.4422 38.6379 17.2594C38.8794 16.7111 39.0361 16.3586 39.0949 16.2019C39.1536 16.0518 39.245 15.8038 39.369 15.4643C39.4931 15.1314 39.5844 14.8246 39.6432 14.5439C39.7019 14.2697 39.7476 13.9303 39.7803 13.5321C39.8129 13.1339 39.7933 12.7487 39.7346 12.3832C39.6758 12.0176 39.5975 11.6325 39.5061 11.2343C39.4147 10.8361 39.2319 10.451 38.9578 10.0854C38.6836 9.71986 38.3638 9.34778 37.9917 8.98222C37.6849 8.61667 37.365 8.32292 37.0256 8.1075C36.6861 7.89208 36.3532 7.70931 36.0137 7.55917C35.6743 7.40903 35.3283 7.29806 34.9562 7.23931C34.5907 7.18056 34.2708 7.14792 33.9901 7.14792C33.7094 7.14792 33.3961 7.18056 33.024 7.23931C32.6585 7.29806 32.3647 7.36333 32.1493 7.42208C31.9339 7.48083 31.6728 7.55917 31.366 7.65056C31.0592 7.74194 30.8438 7.82028 30.7262 7.87903C30.6022 7.93778 30.4194 8.03569 30.1779 8.15319C29.9299 8.27722 29.7797 8.33597 29.721 8.33597C29.5382 7.78764 29.4142 7.43514 29.3554 7.27847C29.2967 7.12833 29.1857 6.88028 29.0356 6.54083C28.8789 6.20792 28.7288 5.92722 28.5786 5.71181C28.4219 5.49639 28.2261 5.23528 27.9846 4.92847C27.7365 4.62167 27.4624 4.36056 27.1556 4.14514C26.8487 3.92972 26.5158 3.72083 26.1437 3.50542C25.7782 3.29 25.3604 3.13986 24.9035 3.04847C24.4465 2.95708 23.9896 2.9375 23.5 2.9375C23.0104 2.9375 22.5339 2.98319 22.0769 3.07458C21.62 3.16597 21.2022 3.30306 20.8367 3.48583C20.4711 3.66861 20.1513 3.87097 19.8706 4.07986C19.5964 4.29528 19.3353 4.55639 19.0872 4.86319C18.8392 5.17 18.6433 5.43111 18.4932 5.64653C18.3365 5.86194 18.1733 6.13611 17.9906 6.47556C17.8078 6.815 17.6838 7.05653 17.625 7.21319C17.5662 7.36986 17.4422 7.74847 17.2594 8.36208C17.2007 8.36208 17.0571 8.30333 16.8482 8.17931C16.6328 8.05528 16.4369 7.96389 16.2542 7.90514C16.0714 7.84639 15.8103 7.755 15.4708 7.63097C15.1314 7.50694 14.8311 7.41556 14.5504 7.35681C14.2763 7.29806 13.9368 7.25236 13.5386 7.21972C13.1404 7.18708 12.7553 7.20667 12.3897 7.26542C12.0242 7.32417 11.639 7.4025 11.2408 7.49389C10.8426 7.58528 10.4575 7.76806 10.0919 8.04222C9.72639 8.31639 9.35431 8.63625 8.98875 9.00833C8.62319 9.31514 8.32944 9.635 8.11403 9.97444C7.89861 10.3139 7.71583 10.6468 7.56569 10.9862C7.40903 11.3257 7.30458 11.6717 7.24583 12.0438C7.18708 12.4093 7.15444 12.7292 7.15444 13.0099C7.15444 13.2906 7.18708 13.6039 7.24583 13.976C7.30458 14.3415 7.36986 14.6353 7.42861 14.8507C7.48736 15.0661 7.56569 15.3272 7.65708 15.634C7.74847 15.9408 7.82681 16.1562 7.88556 16.2738C7.94431 16.3978 8.0357 16.5806 8.15972 16.8221C8.28375 17.0701 8.3425 17.2203 8.3425 17.279C7.91167 17.4031 7.62444 17.4944 7.46778 17.5532C7.31111 17.6119 7.10222 17.7099 6.82806 17.8274C6.55389 17.9514 6.30583 18.0754 6.09042 18.1929C5.875 18.3169 5.61389 18.4867 5.30708 18.6956C5.00028 18.911 4.75875 19.1264 4.56944 19.3353C4.38667 19.5507 4.17125 19.8118 3.92972 20.1186C3.68167 20.4254 3.49889 20.7453 3.38139 21.0847C3.25736 21.4242 3.15292 21.7897 3.06153 22.1879C2.97014 22.5861 2.92444 23.0169 2.92444 23.4739C2.92444 23.9308 2.97014 24.3747 3.06153 24.8056C3.15292 25.2364 3.25736 25.6019 3.38139 25.9088C3.50542 26.2156 3.66861 26.5224 3.88403 26.8292C4.09944 27.136 4.29528 27.3971 4.47806 27.6125C4.66083 27.8279 4.90889 28.0433 5.21569 28.2522C5.5225 28.4676 5.76403 28.6374 5.95333 28.7549C6.13611 28.8789 6.38417 29.0029 6.69097 29.1204C6.99778 29.2444 7.22625 29.3358 7.37639 29.3946C7.52653 29.4533 7.85292 29.5774 8.3425 29.7601C8.09444 30.3085 7.94431 30.661 7.88556 30.8176C7.82681 30.9743 7.72889 31.2158 7.61139 31.5553C7.48736 31.8947 7.39597 32.195 7.33722 32.4757C7.27847 32.7499 7.22625 33.0893 7.20014 33.4875C7.1675 33.8857 7.18708 34.2708 7.24583 34.6364C7.30458 35.0019 7.38292 35.3871 7.47431 35.7853C7.56569 36.1835 7.74847 36.5686 8.02264 36.9342C8.29681 37.2997 8.61667 37.6718 8.98875 38.0374C9.60236 38.7097 10.2421 39.1993 10.9144 39.5061C11.5868 39.8129 12.2722 39.9369 12.9772 39.8717C13.6822 39.8129 14.3546 39.6889 14.9943 39.5061C15.634 39.3233 16.3847 39.0492 17.2464 38.6771C17.4292 39.2254 17.5532 39.5779 17.6119 39.7346C17.6707 39.8913 17.7817 40.1328 17.9318 40.4722C18.0819 40.8117 18.2386 41.0858 18.3888 41.3013C18.5389 41.5167 18.7413 41.7778 18.9828 42.0846C19.2243 42.3914 19.505 42.6525 19.8118 42.8679C20.1186 43.0833 20.4515 43.2922 20.8236 43.5076C21.1892 43.7231 21.6069 43.8732 22.0639 43.9646C22.5208 44.056 23.0104 44.0625 23.5 44.0625C23.9896 44.0625 24.4661 44.0168 24.9231 43.9254C25.38 43.834 25.7978 43.6969 26.1633 43.5142C26.5289 43.3314 26.8488 43.129 27.1294 42.9201C27.4036 42.7047 27.6647 42.4436 27.9128 42.1368C28.1543 41.83 28.3567 41.5689 28.5068 41.3535C28.6569 41.1381 28.8267 40.8639 29.0094 40.5244C29.1922 40.1915 29.3162 39.9435 29.375 39.7868C29.4338 39.6367 29.5578 39.2515 29.7406 38.6379C30.5957 39.0035 31.3464 39.2776 31.9926 39.4669C32.6389 39.6562 33.3047 39.7738 34.0097 39.8325C34.7147 39.8913 35.4001 39.7738 36.0725 39.4669C36.7449 39.1601 37.3846 38.6706 37.9982 37.9982C38.3638 37.6914 38.6575 37.3715 38.8729 37.0321C39.0883 36.6992 39.2711 36.3597 39.4212 36.0203C39.5714 35.6874 39.6824 35.3349 39.7411 34.9628C39.7999 34.5972 39.8325 34.2774 39.8325 33.9967C39.8325 33.716 39.7999 33.4026 39.7411 33.0306C39.6824 32.665 39.6171 32.3713 39.5583 32.1558C39.4996 31.9404 39.4212 31.6793 39.3299 31.3725C39.2385 31.0657 39.1601 30.8503 39.1014 30.7328C39.0426 30.6088 38.9447 30.426 38.8272 30.1844C38.7097 29.956 38.6444 29.8058 38.6444 29.7406ZM31.6728 16.7046L32.776 17.8078C33.0828 18.1146 33.0828 18.4475 32.776 18.8196L21.3001 30.2954C21.1761 30.4194 21.0064 30.4782 20.7975 30.4782C20.5821 30.4782 20.4124 30.4194 20.2949 30.2954L14.2371 24.2376C13.9303 23.8721 13.9303 23.5326 14.2371 23.2258L15.3403 22.1226C15.4643 21.9986 15.6275 21.9399 15.8429 21.9399C16.0583 21.9399 16.2215 21.9986 16.3456 22.1226L20.8432 26.6203L30.6675 16.7046C30.7915 16.5806 30.9547 16.5218 31.1701 16.5218C31.379 16.5218 31.5488 16.5871 31.6728 16.7046Z" fill="#424242"/>
</svg>
