<svg width="49" height="49" viewBox="0 0 49 49" fill="none" xmlns="http://www.w3.org/2000/svg">
<path d="M42.875 0C44.5356 0 45.9715 0.605695 47.1829 1.81708C48.3943 3.02847 49 4.46444 49 6.125V33.6875C49 35.3481 48.3943 36.784 47.1829 37.9954C45.9715 39.2068 44.5356 39.8125 42.875 39.8125H29.0938L17.1296 48.8094C16.939 48.9388 16.7144 49 16.4626 49C15.6936 49 15.3125 48.6189 15.3125 47.8499V39.8125H6.125C4.46444 39.8125 3.02847 39.2068 1.81708 37.9954C0.605695 36.784 0 35.3481 0 33.6875V6.125C0 4.46444 0.605695 3.02847 1.81708 1.81708C3.02847 0.605695 4.46444 0 6.125 0H42.875ZM45.9375 33.6875V6.125C45.9375 5.29472 45.6313 4.58014 45.0256 3.97444C44.4199 3.36875 43.7053 3.0625 42.875 3.0625H6.125C5.29472 3.0625 4.58014 3.36875 3.97444 3.97444C3.36194 4.58014 3.0625 5.29472 3.0625 6.125V33.6875C3.0625 34.5178 3.36194 35.2324 3.97444 35.8381C4.58014 36.4506 5.29472 36.75 6.125 36.75H18.375V44.0251L27.2767 37.3285L28.0389 36.75H42.875C43.7053 36.75 44.4199 36.4506 45.0256 35.8381C45.6313 35.2324 45.9375 34.5178 45.9375 33.6875Z" fill="#424242"/>
<path d="M19.3005 12.3249C19.4639 11.9915 19.7361 11.8281 20.1036 11.8281C20.4711 11.8281 20.7433 11.9915 20.9067 12.3249L22.7101 15.9863L26.7594 16.5988C27.1269 16.6328 27.3719 16.8302 27.4808 17.1841C27.5897 17.538 27.5148 17.8374 27.2562 18.096L24.3162 20.9544L25.0104 25.0037C25.0648 25.3576 24.9423 25.6366 24.6497 25.8476C24.3571 26.0585 24.0508 26.0858 23.7378 25.9156L20.1036 24.0305L16.4694 25.9156C16.1564 26.0994 15.8501 26.079 15.5575 25.8612C15.2648 25.6366 15.1423 25.3508 15.1968 25.0037L15.891 20.9544L12.951 18.096C12.6923 17.8374 12.6175 17.5312 12.7264 17.1841C12.8353 16.8302 13.0803 16.6397 13.4478 16.5988L17.4971 15.9863L19.3005 12.3249Z" fill="#424242"/>
<path d="M43.2424 16.6464C43.6167 16.6873 43.8617 16.8778 43.9706 17.2385C44.0795 17.5924 44.0046 17.9055 43.746 18.1641L40.772 21.0496L41.4729 25.1466C41.5274 25.5005 41.4049 25.7863 41.1054 26.0041C40.806 26.2218 40.4997 26.2423 40.1799 26.0721L36.5049 24.1666L32.8299 26.0721C32.51 26.2559 32.2038 26.2423 31.9043 26.0177C31.6049 25.7931 31.4824 25.5005 31.5368 25.1466L32.2378 21.0496L29.2638 18.1641C28.9983 17.9055 28.9303 17.5924 29.0392 17.2385C29.1481 16.8846 29.3931 16.6873 29.7674 16.6464L33.8643 16.0271L35.6882 12.3249C35.8583 11.9914 36.1306 11.8213 36.4981 11.8213C36.8724 11.8213 37.1446 11.9914 37.3079 12.3249L39.1318 16.0271L43.2424 16.6464ZM39.3428 20.5732L42.1467 17.8238L38.2471 17.2657L36.5117 13.7336L34.7763 17.2657L30.8767 17.8238L33.6806 20.5732L33.034 24.4728L36.5117 22.6217L39.9893 24.4728L39.3428 20.5732Z" fill="#424242"/>
<path d="M11.4062 17.1773C11.2973 16.8234 11.0523 16.6328 10.6848 16.592L6.63551 15.9795L4.83204 12.3249C4.66871 11.9915 4.39649 11.8281 4.02899 11.8281C3.66149 11.8281 3.38927 11.9915 3.22593 12.3249L2.7019 13.3798V24.711L4.02899 24.0237L7.66315 25.9088C7.97621 26.0722 8.28246 26.0517 8.5751 25.8408C8.86774 25.6298 8.99024 25.344 8.93579 24.9969L8.24163 20.9476L11.1816 18.0892C11.4402 17.8306 11.5151 17.5244 11.4062 17.1773Z" fill="#424242"/>
</svg>
