<svg width="50" height="49" viewBox="0 0 50 49" fill="none" xmlns="http://www.w3.org/2000/svg">
<path d="M0.61441 19.683C1.77426 15.5732 4.21047 11.6594 7.93363 7.94151C11.6568 4.21835 15.5706 1.77684 19.6804 0.616993C23.7902 -0.542855 26.8937 -0.0662048 29.0016 2.03635L34.9014 7.94151C36.7604 9.80045 37.0358 12.708 35.717 16.6589C34.3983 20.6098 31.8826 24.4442 28.1595 28.1674C24.4363 31.8852 20.6019 34.4009 16.651 35.7196C12.7001 37.0383 9.79786 36.7629 7.93893 34.904L2.03906 29.0041C-0.0687879 26.8963 -0.540142 23.7928 0.61441 19.683ZM11.1749 27.9767C14.6703 26.944 18.081 24.7567 21.4175 21.4201C24.7541 18.0836 26.9361 14.6729 27.9741 11.1774C29.0121 7.682 28.7897 5.19813 27.3174 3.72581C25.8451 2.25349 23.3612 2.03105 19.8658 3.06909C16.3703 4.10713 12.9596 6.28913 9.62309 9.62568C6.28654 12.9622 4.10455 16.3782 3.06651 19.8683C2.03377 23.3638 2.25091 25.8477 3.72323 27.32C5.19555 28.7923 7.68472 29.0147 11.1749 27.9767ZM13.7805 34.009L10.4122 30.6406C9.42714 30.8525 8.43147 30.9743 7.40932 31.0114L9.62309 33.2251C10.4652 34.0619 11.8528 34.3267 13.7805 34.009ZM19.8393 31.6363L16.418 28.215C15.327 28.8823 14.1883 29.4278 12.9967 29.8462L16.418 33.2728C17.5726 32.812 18.7165 32.2718 19.8393 31.6363ZM25.6332 27.32L22.2119 23.8987C21.0521 24.9897 19.8234 26.0065 18.5259 26.9545L21.8942 30.3229C23.2288 29.4066 24.4734 28.411 25.6332 27.32ZM30.3203 21.8968L26.952 18.5284C26.004 19.826 24.9871 21.0547 23.8961 22.2145L27.3174 25.6358C28.4031 24.476 29.4041 23.2314 30.3203 21.8968ZM33.2702 16.4206L29.8489 12.9993C29.4252 14.1962 28.885 15.3349 28.2177 16.4206L31.639 19.8419C32.2693 18.7191 32.8095 17.5804 33.2702 16.4206ZM33.2173 9.62568L31.0035 7.4119C30.9664 8.42875 30.8446 9.42972 30.6328 10.4148L34.0011 13.7831C34.3189 11.8553 34.0593 10.4678 33.2173 9.62568Z" fill="#424242"/>
<path d="M38.0155 27.4896C40.4729 28.1833 42.8191 29.6451 45.0488 31.8747C47.2784 34.1044 48.7402 36.4453 49.434 38.908C50.1278 41.3707 49.8418 43.2296 48.5813 44.4901L45.0488 48.0226C43.9366 49.1348 42.1942 49.2989 39.8321 48.5098C37.47 47.7207 35.1715 46.2113 32.9419 43.9869C30.7122 41.7573 29.2081 39.4641 28.419 37.0967C27.6299 34.7346 27.7941 32.9922 28.9062 31.88L32.4387 28.3475C33.6992 27.0818 35.5582 26.7958 38.0155 27.4896ZM33.0478 33.8131C33.6674 35.9051 34.9756 37.9494 36.9722 39.946C38.9688 41.9426 41.0131 43.2508 43.1051 43.8704C45.1971 44.4901 46.6853 44.3577 47.5644 43.4785C48.4436 42.5994 48.576 41.1111 47.9564 39.0192C47.3367 36.9272 46.0286 34.8829 44.0319 32.8863C42.0353 30.8897 39.991 29.5815 37.899 28.9619C35.8071 28.3422 34.3189 28.4746 33.4397 29.3538C32.5606 30.2329 32.4282 31.7211 33.0478 33.8131ZM29.4411 35.3702L31.459 33.3523C31.3319 32.7645 31.2577 32.166 31.2365 31.557L29.9125 32.881C29.4094 33.3841 29.2505 34.2156 29.4411 35.3702ZM30.8605 38.998L32.9101 36.9484C32.5129 36.297 32.1845 35.6138 31.9303 34.8988L29.8807 36.9484C30.1561 37.6422 30.4792 38.3254 30.8605 38.998ZM33.445 42.467L35.4946 40.4174C34.8432 39.7236 34.2341 38.9874 33.6674 38.2089L31.6496 40.2267C32.1951 41.0264 32.7936 41.7732 33.445 42.467ZM36.6915 45.2739L38.7093 43.2561C37.9308 42.6894 37.1947 42.0803 36.5009 41.4289L34.4513 43.4785C35.1451 44.1246 35.8918 44.7231 36.6915 45.2739ZM39.9698 47.0375L42.0194 44.9879C41.3044 44.7337 40.6212 44.4106 39.9698 44.0081L37.9202 46.0577C38.5928 46.439 39.276 46.7621 39.9698 47.0375ZM44.0372 47.0057L45.3613 45.6817C44.7522 45.6605 44.1537 45.5864 43.5659 45.4593L41.5481 47.4771C42.7026 47.6677 43.5341 47.5088 44.0372 47.0057Z" fill="#424242"/>
</svg>
