<svg width="25" height="25" viewBox="0 0 25 25" fill="none" xmlns="http://www.w3.org/2000/svg">
<path d="M24.769 22.7075C25.0503 22.9575 25.0503 23.2231 24.769 23.5044L23.7378 24.5356C23.4565 24.8169 23.1909 24.8169 22.9409 24.5356L17.269 18.8638C17.144 18.7388 17.0815 18.6138 17.0815 18.4888V17.8325C15.2378 19.4263 13.1128 20.2231 10.7065 20.2231C8.01904 20.2231 5.72217 19.27 3.81592 17.3638C1.90967 15.4575 0.956543 13.1606 0.956543 10.4731C0.956543 7.78564 1.90967 5.48877 3.81592 3.58252C5.72217 1.67627 8.01904 0.723145 10.7065 0.723145C13.394 0.723145 15.6909 1.67627 17.5972 3.58252C19.5034 5.48877 20.4565 7.78564 20.4565 10.4731C20.4565 12.8794 19.6597 15.0044 18.0659 16.8481H18.7222C18.8784 16.8481 19.0034 16.9106 19.0972 17.0356L24.769 22.7075ZM5.40967 15.77C6.87842 17.2388 8.64404 17.9731 10.7065 17.9731C12.769 17.9731 14.5347 17.2388 16.0034 15.77C17.4722 14.3013 18.2065 12.5356 18.2065 10.4731C18.2065 8.41064 17.4722 6.64502 16.0034 5.17627C14.5347 3.70752 12.769 2.97314 10.7065 2.97314C8.64404 2.97314 6.87842 3.70752 5.40967 5.17627C3.94092 6.64502 3.20654 8.41064 3.20654 10.4731C3.20654 12.5356 3.94092 14.3013 5.40967 15.77Z" fill="#FAFAFA"/>
</svg>
