<svg width="19" height="19" viewBox="0 0 19 19" fill="none" xmlns="http://www.w3.org/2000/svg">
<path d="M18.6538 16.7383C18.8647 16.9258 18.8647 17.125 18.6538 17.3359L17.8804 18.1094C17.6694 18.3203 17.4702 18.3203 17.2827 18.1094L13.0288 13.8555C12.9351 13.7617 12.8882 13.668 12.8882 13.5742V13.082C11.5054 14.2773 9.91162 14.875 8.10693 14.875C6.09131 14.875 4.36865 14.1602 2.93896 12.7305C1.50928 11.3008 0.794434 9.57812 0.794434 7.5625C0.794434 5.54688 1.50928 3.82422 2.93896 2.39453C4.36865 0.964844 6.09131 0.25 8.10693 0.25C10.1226 0.25 11.8452 0.964844 13.2749 2.39453C14.7046 3.82422 15.4194 5.54688 15.4194 7.5625C15.4194 9.36719 14.8218 10.9609 13.6265 12.3438H14.1187C14.2358 12.3438 14.3296 12.3906 14.3999 12.4844L18.6538 16.7383ZM4.13428 11.5352C5.23584 12.6367 6.56006 13.1875 8.10693 13.1875C9.65381 13.1875 10.978 12.6367 12.0796 11.5352C13.1812 10.4336 13.7319 9.10938 13.7319 7.5625C13.7319 6.01562 13.1812 4.69141 12.0796 3.58984C10.978 2.48828 9.65381 1.9375 8.10693 1.9375C6.56006 1.9375 5.23584 2.48828 4.13428 3.58984C3.03271 4.69141 2.48193 6.01562 2.48193 7.5625C2.48193 9.10938 3.03271 10.4336 4.13428 11.5352Z" fill="#9E9E9E"/>
</svg>
