<svg width="33" height="33" viewBox="0 0 33 33" fill="none" xmlns="http://www.w3.org/2000/svg">
<path d="M31.625 13.75C32.026 13.75 32.3411 13.8932 32.5703 14.1797C32.8568 14.4089 33 14.724 33 15.125V17.875C33 18.276 32.8568 18.6198 32.5703 18.9063C32.3411 19.1354 32.026 19.25 31.625 19.25H19.25V31.625C19.25 32.026 19.1068 32.3698 18.8203 32.6563C18.5911 32.8854 18.276 33 17.875 33H15.125C14.724 33 14.3802 32.8854 14.0938 32.6563C13.8646 32.3698 13.75 32.026 13.75 31.625V19.25H1.375C0.973958 19.25 0.630208 19.1354 0.34375 18.9063C0.114583 18.6198 0 18.276 0 17.875V15.125C0 14.724 0.114583 14.4089 0.34375 14.1797C0.630208 13.8932 0.973958 13.75 1.375 13.75H13.75V1.375C13.75 0.973958 13.8646 0.658854 14.0938 0.429688C14.3802 0.143229 14.724 0 15.125 0H17.875C18.276 0 18.5911 0.143229 18.8203 0.429688C19.1068 0.658854 19.25 0.973958 19.25 1.375V13.75H31.625Z" fill="white"/>
</svg>
