<svg width="11" height="12" viewBox="0 0 11 12" fill="none" xmlns="http://www.w3.org/2000/svg">
<path d="M6.53125 6L9.875 9.375C10.125 9.60417 10.125 9.83333 9.875 10.0625L9.09375 10.8438C8.86458 11.0938 8.63542 11.0938 8.40625 10.8438L5.03125 7.5L1.65625 10.8438C1.42708 11.0938 1.19792 11.0938 0.96875 10.8438L0.1875 10.0625C-0.0625 9.83333 -0.0625 9.60417 0.1875 9.375L3.53125 6L0.1875 2.625C-0.0625 2.39583 -0.0625 2.16667 0.1875 1.9375L0.96875 1.15625C1.19792 0.90625 1.42708 0.90625 1.65625 1.15625L5.03125 4.5L8.40625 1.15625C8.63542 0.90625 8.86458 0.90625 9.09375 1.15625L9.875 1.9375C10.125 2.16667 10.125 2.39583 9.875 2.625L6.53125 6Z" fill="#757575"/>
</svg>
